HIERARCHY
ROOT Hips
{
	OFFSET 0.000000 0.000000 0.000000
	CHANNELS 6 Xposition Yposition Zposition Zrotation Yrotation Xrotation 
	JOINT LeftUpLeg_virtual
	{
		OFFSET 0.000000 0.000000 0.000000
		CHANNELS 3 Zrotation Yrotation Xrotation
		JOINT LeftUpLeg
		{
			OFFSET 10.205400 -3.823500 0.155100
			CHANNELS 3 Zrotation Yrotation Xrotation
			JOINT LeftLeg
			{
				OFFSET 0.708757 -12.982077 0.567790
				CHANNELS 3 Zrotation Yrotation Xrotation
				JOINT LeftFoot
				{
					OFFSET -0.708756 -10.717838 -2.184338
					CHANNELS 3 Zrotation Yrotation Xrotation
					JOINT LeftToeBase
					{
						OFFSET 0.108149 -7.191104 7.560241
						CHANNELS 3 Zrotation Yrotation Xrotation
						End Site
						{
							OFFSET 0.000000 0.000000 0.000000
						}
					}
				}
			}
		}
	}
	JOINT RightUpLeg_virtual
	{
		OFFSET 0.000000 0.000000 0.000000
		CHANNELS 3 Zrotation Yrotation Xrotation
		JOINT RightUpLeg
		{
			OFFSET -10.205400 -3.823500 0.005500
			CHANNELS 3 Zrotation Yrotation Xrotation
			JOINT RightLeg
			{
				OFFSET -0.708756 -12.982134 0.610632
				CHANNELS 3 Zrotation Yrotation Xrotation
				JOINT RightFoot
				{
					OFFSET 0.708754 -10.717769 -1.945823
					CHANNELS 3 Zrotation Yrotation Xrotation
					JOINT RightToeBase
					{
						OFFSET -0.108140 -7.191069 7.372968
						CHANNELS 3 Zrotation Yrotation Xrotation
						End Site
						{
							OFFSET 0.000000 0.000000 0.000000
						}
					}
				}
			}
		}
	}
	JOINT Spine_virtual
	{
		OFFSET 0.000000 0.000000 0.000000
		CHANNELS 3 Zrotation Yrotation Xrotation
		JOINT Spine
		{
			OFFSET 0.000000 6.876099 0.125700
			CHANNELS 3 Zrotation Yrotation Xrotation
			JOINT Spine1
			{
				OFFSET 0.000000 8.022060 0.146608
				CHANNELS 3 Zrotation Yrotation Xrotation
				JOINT Spine2
				{
					OFFSET 0.000000 9.168068 0.167552
					CHANNELS 3 Zrotation Yrotation Xrotation
					JOINT Neck_virtual
					{
						OFFSET 0.000000 0.000000 0.000000
						CHANNELS 3 Zrotation Yrotation Xrotation
						JOINT Neck
						{
							OFFSET 0.000000 10.314075 0.188496
							CHANNELS 3 Zrotation Yrotation Xrotation
							JOINT Head
							{
								OFFSET 0.000000 7.643700 -2.377400
								CHANNELS 3 Zrotation Yrotation Xrotation
								End Site
								{
									OFFSET 0.000000 0.000000 0.000000
								}
							}
						}
					}
					JOINT LeftShoulder_virtual
					{
						OFFSET 0.000000 0.000000 0.000000
						CHANNELS 3 Zrotation Yrotation Xrotation
						JOINT LeftShoulder
						{
							OFFSET 4.392200 8.824978 0.174984
							CHANNELS 3 Zrotation Yrotation Xrotation
							JOINT LeftArm
							{
								OFFSET 8.771219 -2.981674 -0.026999
								CHANNELS 3 Zrotation Yrotation Xrotation
								JOINT LeftForeArm
								{
									OFFSET 8.512804 0.000000 -0.000000
									CHANNELS 3 Zrotation Yrotation Xrotation
									JOINT LeftHand
									{
										OFFSET 18.484802 0.000000 -0.000000
										CHANNELS 3 Zrotation Yrotation Xrotation
										End Site
										{
											OFFSET 0.000000 0.000000 0.000000
										}
									}
								}
							}
						}
					}
					JOINT RightShoulder_virtual
					{
						OFFSET 0.000000 0.000000 0.000000
						CHANNELS 3 Zrotation Yrotation Xrotation
						JOINT RightShoulder
						{
							OFFSET -4.392200 8.824993 0.141379
							CHANNELS 3 Zrotation Yrotation Xrotation
							JOINT RightArm
							{
								OFFSET -8.771282 -2.981682 -0.094208
								CHANNELS 3 Zrotation Yrotation Xrotation
								JOINT RightForeArm
								{
									OFFSET -8.494598 0.000000 0.000000
									CHANNELS 3 Zrotation Yrotation Xrotation
									JOINT RightHand
									{
										OFFSET -18.483803 0.000000 0.000001
										CHANNELS 3 Zrotation Yrotation Xrotation
										End Site
										{
											OFFSET 0.000000 0.000000 0.000000
										}
									}
								}
							}
						}
					}
				}
			}
		}
	}
}
MOTION
Frames: 4
Frame Time: 0.033333
-11.111440 35.853642 48.897694 179.890968 31.159897 179.826067 -1.350302 -4.662435 5.889188 -4.320416 5.844746 -22.465090 11.998748 9.437527 20.214013 -1.256143 -1.692228 12.289360 0.000000 0.000000 0.000000 3.982952 -3.341564 2.742137 9.193385 4.360585 -13.053848 -6.023223 2.941248 15.919299 1.664902 9.574160 10.185311 0.000000 0.000000 0.000000 1.112576 -0.496341 -5.403744 2.047590 -0.676941 -9.420795 -1.608470 -1.873479 8.996250 0.021547 0.046602 -0.066414 -2.075817 0.323116 10.458346 -4.784925 -1.664802 13.115359 0.000000 0.000000 0.000000 0.002914 0.918515 7.688501 -10.761339 -3.238481 3.409288 -51.092653 29.670734 18.012718 -2.881490 -46.545461 13.804071 0.000000 0.000000 0.000000 -4.422887 2.191699 7.253259 26.518351 6.219279 3.150523 47.950711 -27.343573 20.382340 -9.831105 40.166748 -6.232610 0.000000 0.000000 0.000000 
-11.151633 35.856396 48.890873 179.880422 31.473163 179.764282 -1.327585 -4.442090 5.850853 -4.351537 5.553143 -22.408222 12.085921 9.333947 20.179422 -1.044681 -1.608149 12.574213 0.000000 0.000000 0.000000 4.167827 -3.430944 2.616096 8.883789 4.312605 -13.190102 -5.921193 3.031995 15.862925 1.869575 9.631148 10.254732 0.000000 0.000000 0.000000 1.171069 -0.301578 -5.424832 2.091002 -0.665749 -9.400967 -1.614719 -1.893055 8.973875 0.002897 0.058110 0.029932 -2.018698 0.187079 10.378398 -4.858837 -1.600351 13.142770 0.000000 0.000000 0.000000 0.043937 0.873239 7.653214 -10.946122 -3.254929 3.417116 -51.166463 29.679723 17.674923 -2.767102 -46.271205 13.634751 0.000000 0.000000 0.000000 -4.375210 2.120972 7.189501 26.425302 6.310238 3.137372 48.067835 -27.668475 20.113736 -9.732631 39.993022 -6.138085 0.000000 0.000000 0.000000 
-11.187029 35.849850 48.880722 179.844605 31.722786 179.742671 -1.380026 -4.316271 5.695713 -4.359652 5.441429 -22.276334 12.114374 9.338541 20.365428 -0.867643 -1.549324 12.401830 0.000000 0.000000 0.000000 4.127015 -3.321395 2.501352 8.783488 4.277420 -13.211391 -5.823899 3.057570 16.106588 1.799832 9.831108 10.054310 0.000000 0.000000 0.000000 1.163399 -0.246645 -5.616291 2.207863 -0.636642 -9.474262 -1.622490 -1.924117 9.051377 -0.035570 0.063769 -0.052016 -2.073492 0.158376 10.501760 -4.899976 -1.550462 13.287577 0.000000 0.000000 0.000000 0.020424 0.833672 7.768626 -11.192630 -3.190636 3.358334 -51.124287 29.350334 17.129075 -2.719729 -46.435335 13.498874 0.000000 0.000000 0.000000 -4.432395 2.134724 7.359975 26.393045 6.457688 3.043227 48.216211 -27.995637 19.796098 -9.776801 40.232481 -6.378644 0.000000 0.000000 0.000000 
-11.212491 35.832378 48.855736 179.791192 32.057431 179.668877 -1.436271 -4.170397 5.566669 -4.257004 5.007232 -22.123662 12.142943 9.550859 20.751780 -0.663543 -1.452491 12.144757 0.000000 0.000000 0.000000 4.067406 -3.194485 2.364171 8.688177 4.377838 -13.173517 -5.651788 3.367473 16.472406 1.704775 9.799168 9.718558 0.000000 0.000000 0.000000 1.153841 -0.148372 -5.812680 2.380330 -0.580665 -9.590040 -1.736226 -1.946164 9.121435 -0.008862 0.060722 -0.034049 -2.084670 0.175641 10.599382 -4.849370 -1.505615 13.560365 0.000000 0.000000 0.000000 -0.021492 0.843686 7.909105 -11.509616 -3.235342 3.253373 -50.949789 28.566645 16.603107 -2.756486 -47.457196 13.296397 0.000000 0.000000 0.000000 -4.468785 2.158729 7.471509 26.387121 6.632034 2.871935 48.399981 -28.272868 19.664178 -10.013745 41.211357 -6.563828 0.000000 0.000000 0.000000 
